<svg id="Capa_1" enable-background="new 0 0 512 512" height="512" viewBox="0 0 512 512" width="512" xmlns="http://www.w3.org/2000/svg"><g><g><path d="m478.958 334.243 8.266 23.242c.354.995 1.055 1.784 1.939 2.182l20.65 9.303c2.917 1.314 2.917 5.963 0 7.277l-20.65 9.303c-.884.398-1.585 1.187-1.939 2.182l-8.266 23.242c-1.168 3.284-5.297 3.284-6.465 0l-8.266-23.242c-.354-.995-1.054-1.784-1.939-2.182l-20.65-9.303c-2.917-1.314-2.917-5.963 0-7.277l20.65-9.303c.884-.398 1.585-1.187 1.939-2.182l8.266-23.242c1.168-3.283 5.297-3.283 6.465 0z"/><circle cx="225.246" cy="365.59" r="18.049"/><ellipse cx="289.974" cy="426.992" rx="7.786" ry="7.786" transform="matrix(.924 -.383 .383 .924 -141.33 143.471)"/><path d="m44.492 262.515 6.131 17.24c.263.738.782 1.323 1.438 1.619l15.318 6.901c2.164.975 2.164 4.423 0 5.398l-15.318 6.901c-.656.296-1.176.88-1.438 1.619l-6.131 17.24c-.866 2.436-3.93 2.436-4.796 0l-6.131-17.24c-.263-.738-.782-1.323-1.438-1.619l-15.318-6.901c-2.164-.975-2.164-4.423 0-5.398l15.318-6.901c.656-.296 1.175-.88 1.438-1.619l6.131-17.24c.867-2.436 3.93-2.436 4.796 0z"/></g><g><path d="m509.985 159.641c-2.838-41.949-37.888-75.099-80.009-75.563-26.371-.319-51.247 12.283-66.689 33.688-12.626-18.34-32.09-30.541-53.716-34.083-.092-.805-.195-1.609-.316-2.407-1.424-21.137-10.655-40.839-26.025-55.522-15.572-14.876-36.013-23.199-57.558-23.436-27.809-.331-53.993 13.065-70.092 35.788-15.593-23.072-41.472-37.019-69.285-37.324-.321-.004-.639-.006-.96-.006-44.81 0-81.745 34.653-84.532 79.397-8.853 54.338 57.222 128.167 114.332 180.62 3.252 2.987 6.796 5.568 10.551 7.742l-6.557 11.357c-5.27 9.129-5.27 20.029 0 29.157 5.27 9.129 14.709 14.579 25.251 14.579h.725c-.586 5.716-2.101 9.18-3.917 13.309-2.757 6.269-5.882 13.376-5.882 26.931s3.125 20.662 5.883 26.931c2.335 5.31 4.179 9.504 4.179 18.829 0 9.328-1.845 13.522-4.18 18.833-2.757 6.27-5.882 13.378-5.882 26.934s3.125 20.663 5.882 26.934c2.336 5.311 4.18 9.506 4.18 18.833 0 5.557 4.505 10.062 10.062 10.062s10.063-4.505 10.063-10.062c0-13.556-3.125-20.664-5.882-26.934-2.336-5.311-4.18-9.506-4.18-18.833 0-9.328 1.844-13.522 4.18-18.833 2.757-6.27 5.882-13.378 5.882-26.934 0-13.555-3.125-20.661-5.882-26.93-2.336-5.31-4.18-9.504-4.18-18.83s1.844-13.52 4.18-18.83c2.355-5.355 4.972-11.336 5.687-21.41h.32c10.541 0 19.981-5.45 25.251-14.579 5.27-9.128 5.27-20.028 0-29.157l-6.205-10.745c4.139-2.277 8.031-5.047 11.586-8.288 12.179-11.106 24.774-23.215 36.951-35.936 21.364 37.011 57.908 75.305 91.262 105.94 2.999 2.754 6.258 5.147 9.706 7.181l-5.997 10.388c-5.103 8.839-5.103 19.393 0 28.231 4.847 8.394 13.337 13.566 22.922 14.066.818 2.146 1.686 4.037 2.497 5.79 2.293 4.96 4.103 8.876 4.103 17.548 0 8.674-1.811 12.592-4.103 17.552-2.655 5.746-5.96 12.896-5.96 25.995s3.305 20.249 5.96 25.995c2.292 4.961 4.103 8.878 4.103 17.552 0 5.557 4.506 10.062 10.063 10.062s10.062-4.505 10.062-10.062c0-13.1-3.305-20.25-5.96-25.995-2.292-4.96-4.103-8.877-4.103-17.552 0-8.674 1.811-12.592 4.103-17.551 2.655-5.746 5.96-12.896 5.96-25.996 0-11.138-2.39-17.969-4.737-23.298 10.103-.086 19.136-5.342 24.196-14.107 5.103-8.838 5.103-19.392 0-28.231l-5.654-9.793c3.809-2.138 7.395-4.716 10.681-7.712v-.001c53.634-48.905 115.752-118.252 107.68-171.284zm-336.544 130.314c2.354 4.076.784 7.674 0 9.032s-3.116 4.516-7.822 4.516h-21.239c-4.706 0-7.038-3.158-7.822-4.516s-2.354-4.956 0-9.032l8.289-14.357c3.547.649 7.17.988 10.834.988h.009c3.233 0 6.433-.274 9.581-.78zm9.249-43.968v.001c-15.425 14.065-38.614 14.059-53.941-.018-74.704-68.612-114.076-128.003-108.018-162.946.066-.383.11-.771.132-1.16 1.911-34.323 30.164-60.964 64.479-60.964.242 0 .488.002.731.004 21.282.234 41.079 10.948 52.96 28.657 3.643 5.431 9.745 8.718 16.323 8.791 6.576.094 12.753-3.078 16.516-8.428 12.131-17.25 31.85-27.488 52.866-27.488.237 0 .476.002.713.004 33.678.372 61.679 26.973 63.748 60.56.021.327.057.654.109.979 5.775 35.907-33.086 94.958-106.618 162.008zm197.16 112.508c2.112 3.659.704 6.888 0 8.106-.704 1.219-2.797 4.053-7.02 4.053h-20.208c-4.223 0-6.317-2.834-7.02-4.053-.704-1.219-2.112-4.448 0-8.106l7.718-13.369c3.295.582 6.656.891 10.054.892h.009c2.988 0 5.948-.243 8.862-.694zm8.895-42.44c-14.49 13.213-36.272 13.207-50.666-.015-43.547-39.997-74.443-76.663-90.499-106.675 30.575-34.337 55.995-71.771 61.368-105.332 15.439 3.233 29.205 12.376 38.181 25.758 3.557 5.301 9.513 8.509 15.933 8.58.073.001.144.001.216.001 6.338 0 12.271-3.065 15.901-8.228 11.581-16.467 30.52-26.152 50.576-25.943 31.789.351 58.222 25.46 60.175 57.164.021.327.057.654.109.979 5.467 34-31.453 90.025-101.294 153.711z"/><path d="m55.375 105.629c-5.022 0-9.365-3.754-9.978-8.865-3.507-29.234 12.741-44.652 13.434-45.294 0 0 7.669-7.51 14.843.551 6.427 7.223-1.056 14.108-1.056 14.108-.387.383-9.474 9.608-7.239 28.237.662 5.518-3.274 10.527-8.792 11.19-.407.049-.812.073-1.212.073z"/></g></g></svg>