<svg height="512" viewBox="0 0 512 512" width="512" xmlns="http://www.w3.org/2000/svg"><g id="outline"><path d="m288.062 269.193 13.163-13.161a68.114 68.114 0 0 1 26.491-16.373 8 8 0 0 0 5.06-5.059l5.658-16.971a8 8 0 0 0 -1.933-8.188l-33.942-33.941a8.012 8.012 0 0 0 -8.188-1.933l-16.971 5.658a8 8 0 0 0 -5.059 5.06 68.125 68.125 0 0 1 -16.373 26.492l-13.161 13.161a134.205 134.205 0 0 1 -42.214 28.581q-6.193 2.654-12.236 5.569a7.958 7.958 0 0 0 -4.565 2.245 310.917 310.917 0 0 0 -78.626 56.049c-.206.168-79.794 79.736-79.794 79.736a32.038 32.038 0 0 0 0 45.255l45.256 45.255a32.04 32.04 0 0 0 45.255 0s79.568-79.589 79.737-79.8a310.931 310.931 0 0 0 56.05-78.628 7.957 7.957 0 0 0 2.243-4.561q2.9-6.048 5.569-12.236a134.18 134.18 0 0 1 28.58-42.21zm-81.162-1.968a150.118 150.118 0 0 0 47.225-31.973l13.161-13.161a84.263 84.263 0 0 0 18.854-28.912l8.6-2.868 26.948 26.948-2.868 8.605a84.25 84.25 0 0 0 -28.911 18.854l-13.162 13.161a150.174 150.174 0 0 0 -31.973 47.221c-1.276 2.979-2.615 5.922-3.983 8.848l-38.469-4.274-4.274-38.47c2.926-1.364 5.869-2.704 8.852-3.979zm-17.627 123.087-67.585-67.584a294.737 294.737 0 0 1 61.112-43.861l4.327 38.939a8 8 0 0 0 7.067 7.067l38.939 4.327a294.733 294.733 0 0 1 -43.86 61.112zm-56.42 56.717-67.882-67.882 45.255-45.254 67.881 67.881zm-28.284 28.284a16.018 16.018 0 0 1 -22.628 0l-45.254-45.253a16.018 16.018 0 0 1 0-22.628l16.97-16.971 67.882 67.883z"/><path d="m195.708 172.792a8 8 0 0 0 10.732-3.578l12.285-24.568a48.077 48.077 0 0 1 57.913-23.99 47.532 47.532 0 0 1 27.662 23.989l12.284 24.569a8 8 0 0 0 14.311-7.154l-12.285-24.571a63.837 63.837 0 0 0 -114.193 0l-12.287 24.571a8 8 0 0 0 3.578 10.732z"/><path d="m338.4 142.284a8 8 0 0 0 7.243 8.692c.247.022.491.034.734.034a8 8 0 0 0 7.957-7.277l2.361-25.968a69.13 69.13 0 0 0 -30.525-63.832l-3.653-2.433a69 69 0 0 0 -76.757 0 8 8 0 1 0 8.875 13.312 53.053 53.053 0 0 1 59.007 0l3.649 2.433a53.149 53.149 0 0 1 23.467 49.07z"/><path d="m406.522 230.3a63.422 63.422 0 0 0 -32.012-36.909l-24.57-12.285a8 8 0 0 0 -7.154 14.311l24.568 12.283a47.527 47.527 0 0 1 23.989 27.658 48.073 48.073 0 0 1 -23.988 57.914l-24.569 12.288a8 8 0 1 0 7.154 14.31l24.571-12.284a63.839 63.839 0 0 0 32.011-77.286z"/><path d="m460.5 266.24a69 69 0 0 0 0-76.757l-2.433-3.649a69.137 69.137 0 0 0 -63.832-30.525l-25.968 2.361a8 8 0 1 0 1.449 15.934l25.969-2.362a53.161 53.161 0 0 1 49.07 23.467l2.433 3.649a53.05 53.05 0 0 1 0 59.007 8 8 0 1 0 13.312 8.875z"/><path d="m400 80a8 8 0 0 0 -16 0v9.582a53.347 53.347 0 0 1 -5.6 23.736l-9.551 19.105a8 8 0 0 0 10.733 10.732l9.373-4.686a52.728 52.728 0 0 1 40.52-2.879 8 8 0 1 0 5.058-15.18 68.594 68.594 0 0 0 -41.433-.727 69.444 69.444 0 0 0 6.9-30.1z"/><path d="m464.81 18.25a8 8 0 0 0 -9.258-1.345l-22.436 11.695a8 8 0 0 0 -4.3 7.227l.134 8-8.819 9.118a8 8 0 0 0 .188 11.312l28.752 27.81a8 8 0 0 0 5.562 2.25h.134a8.006 8.006 0 0 0 5.617-2.438l8.818-9.119 8-.133a8 8 0 0 0 7.081-4.541l10.935-22.813a8 8 0 0 0 -1.652-9.208zm7.178 48.455-6.368.107a8 8 0 0 0 -5.62 2.437l-5.559 5.751-17.251-16.687 5.561-5.75a7.994 7.994 0 0 0 2.249-5.694l-.106-6.369 12.937-6.741 20.463 19.792z"/><path d="m141.645 103.767 14.31-10.733a8 8 0 1 0 -9.6-12.8l-14.31 10.733a8 8 0 0 0 9.6 12.8z"/><path d="m198.247 92.564a7.971 7.971 0 0 0 3.572-.846l16-8a8 8 0 0 0 -7.156-14.311l-16 8a8 8 0 0 0 3.584 15.157z"/><path d="m184.909 42.9a8.026 8.026 0 0 0 -8.5-7.462l-17.855 1.162a8 8 0 0 0 .512 15.983c.175 0 .352-.006.529-.017l17.851-1.166a8 8 0 0 0 7.463-8.5z"/><path d="m414.947 347.213-12.618 12.68a8 8 0 0 0 11.342 11.287l12.618-12.68a8 8 0 0 0 -11.342-11.287z"/><path d="m443.9 285.193a8 8 0 0 0 -11.126 2.052l-10.146 14.733a8 8 0 1 0 13.178 9.074l10.145-14.733a8 8 0 0 0 -2.051-11.126z"/><path d="m468.621 325.51a8 8 0 0 0 -9.458 6.208l-3.634 17.515a8 8 0 1 0 15.666 3.25l3.634-17.515a8 8 0 0 0 -6.208-9.458z"/><path d="m328 360a8 8 0 0 0 -8 8v16a8 8 0 0 0 16 0v-16a8 8 0 0 0 -8-8z"/><path d="m328 424a8 8 0 0 0 -8 8v16a8 8 0 0 0 16 0v-16a8 8 0 0 0 -8-8z"/><path d="m368 400h-16a8 8 0 0 0 0 16h16a8 8 0 0 0 0-16z"/><path d="m312 408a8 8 0 0 0 -8-8h-16a8 8 0 0 0 0 16h16a8 8 0 0 0 8-8z"/><path d="m305.373 374.059a8 8 0 0 0 -11.314 11.314l11.313 11.314a8 8 0 0 0 11.315-11.315z"/><path d="m350.628 419.313a8 8 0 0 0 -11.315 11.315l11.314 11.313a8 8 0 0 0 11.314-11.314z"/><path d="m344.971 399.029a7.979 7.979 0 0 0 5.657-2.342l11.313-11.314a8 8 0 0 0 -11.314-11.314l-11.314 11.313a8 8 0 0 0 5.658 13.657z"/><path d="m305.372 419.313-11.313 11.314a8 8 0 0 0 11.314 11.314l11.314-11.313a8 8 0 0 0 -11.315-11.315z"/><path d="m132 144a8 8 0 0 0 -16 0v8a8 8 0 0 0 16 0z"/><path d="m124 200a8 8 0 0 0 -8 8v8a8 8 0 0 0 16 0v-8a8 8 0 0 0 -8-8z"/><path d="m104 180a8 8 0 0 0 -8-8h-8a8 8 0 0 0 0 16h8a8 8 0 0 0 8-8z"/><path d="m168 180a8 8 0 0 0 -8-8h-8a8 8 0 0 0 0 16h8a8 8 0 0 0 8-8z"/><path d="m109.858 154.544-5.657-5.657a8 8 0 1 0 -11.314 11.313l5.657 5.657a8 8 0 1 0 11.314-11.314z"/><path d="m143.8 211.113a8 8 0 1 0 11.313-11.313l-5.657-5.657a8 8 0 1 0 -11.314 11.314z"/><path d="m98.544 213.456a7.974 7.974 0 0 0 5.657-2.343l5.657-5.657a8 8 0 1 0 -11.314-11.314l-5.657 5.658a8 8 0 0 0 5.657 13.657z"/><path d="m143.8 148.887-5.657 5.657a8 8 0 0 0 11.314 11.314l5.657-5.657a8 8 0 1 0 -11.314-11.314z"/><circle cx="124" cy="179" r="8"/></g></svg>