<svg width="30" height="30" viewBox="0 0 30 30" fill="none" xmlns="http://www.w3.org/2000/svg">
<path d="M26.1328 15C26.1328 8.8868 21.1645 3.86719 15 3.86719C8.96324 3.86719 3.86719 8.74443 3.86719 15C3.86719 21.0905 8.80966 26.1328 15 26.1328C21.1194 26.1328 26.1328 21.1581 26.1328 15ZM6.68495 20.4771L7.68288 19.9008C7.96303 19.739 8.05916 19.3806 7.89711 19.1002C7.73529 18.82 7.37709 18.7239 7.09671 18.886L6.09741 19.4632C5.49156 18.2581 5.13702 16.9368 5.05714 15.5859H6.21094C6.53458 15.5859 6.79688 15.3236 6.79688 15C6.79688 14.6764 6.53458 14.4141 6.21094 14.4141H5.05714C5.13702 13.0632 5.49156 11.7421 6.09741 10.5368L7.09671 11.114C7.37709 11.2759 7.73529 11.18 7.89711 10.8998C8.05916 10.6194 7.96303 10.261 7.68288 10.0992L6.68495 9.52286C7.42928 8.39653 8.3963 7.4295 9.52286 6.68518L10.0992 7.68288C10.2617 7.96417 10.6203 8.0587 10.8996 7.89734C11.18 7.73552 11.2759 7.37709 11.114 7.09671L10.5368 6.09764C11.7419 5.49156 13.0632 5.13702 14.4141 5.05714V6.21094C14.4141 6.53458 14.6764 6.79688 15 6.79688C15.3236 6.79688 15.5859 6.53458 15.5859 6.21094V5.05714C16.9368 5.13702 18.2579 5.49156 19.4632 6.09741L18.886 7.09671C18.7241 7.37709 18.82 7.73529 19.1002 7.89711C19.3806 8.05893 19.7388 7.96326 19.9008 7.68288L20.4771 6.68495C21.6035 7.42928 22.5705 8.3963 23.315 9.52286L22.3171 10.0992C22.037 10.261 21.9408 10.6194 22.1029 10.8996C22.2652 11.1806 22.6238 11.2754 22.9033 11.114L23.9026 10.5368C24.5087 11.7419 24.863 13.063 24.9429 14.4141H23.7891C23.4654 14.4141 23.2031 14.6764 23.2031 15C23.2031 15.3234 23.4654 15.5853 23.7891 15.5853H24.9429C24.863 16.9361 24.5084 18.2579 23.9026 19.4632L22.9033 18.886C22.6229 18.7241 22.2647 18.82 22.1029 19.1002C21.9408 19.3806 22.037 19.7388 22.3171 19.9006L23.315 20.4771C22.5707 21.6035 21.6037 22.5705 20.4771 23.3148L19.9008 22.3169C19.739 22.0367 19.3806 21.9406 19.1004 22.1027C18.82 22.2645 18.7241 22.6229 18.886 22.9031L19.4632 23.9024C18.2581 24.5084 16.937 24.863 15.5859 24.9426V23.7891C15.5859 23.4654 15.3236 23.2031 15 23.2031C14.6766 23.2031 14.4141 23.4654 14.4141 23.7891V24.9429C13.0632 24.863 11.7421 24.5084 10.5368 23.9026L11.114 22.9033C11.2759 22.6229 11.18 22.2647 10.8998 22.1029C10.6194 21.9408 10.2612 22.037 10.0994 22.3171L9.52286 23.315C8.39653 22.5707 7.4295 21.6037 6.68495 20.4771V20.4771Z" fill="#501B32"/>
<path d="M15 17.3438C16.0902 17.3438 17.0087 16.5958 17.2696 15.5859H20.8594C21.183 15.5859 21.4453 15.3236 21.4453 15C21.4453 14.6764 21.183 14.4141 20.8594 14.4141H17.2696C17.0572 13.5917 16.4083 12.9428 15.5859 12.7304V8.55469C15.5859 8.23105 15.3236 7.96875 15 7.96875C14.6764 7.96875 14.4141 8.23105 14.4141 8.55469V12.7304C13.4042 12.9913 12.6562 13.9098 12.6562 15C12.6562 16.2923 13.7077 17.3438 15 17.3438ZM15 13.8281C15.6461 13.8281 16.1719 14.3539 16.1719 15C16.1719 15.6461 15.6461 16.1719 15 16.1719C14.3539 16.1719 13.8281 15.6461 13.8281 15C13.8281 14.3539 14.3539 13.8281 15 13.8281Z" fill="#501B32"/>
<path d="M15.5859 29.4141C15.5859 29.7377 15.3236 30 15 30C14.6764 30 14.4141 29.7377 14.4141 29.4141C14.4141 29.0904 14.6764 28.8281 15 28.8281C15.3236 28.8281 15.5859 29.0904 15.5859 29.4141Z" fill="#501B32"/>
<path d="M15 0C6.70967 0 0 6.70853 0 15C0 22.5158 5.4554 28.5061 12.2683 29.7533C12.5869 29.8116 12.892 29.6006 12.9504 29.2825C13.0085 28.9641 12.7977 28.6588 12.4793 28.6004C6.18553 27.4484 1.17188 21.9138 1.17188 15C1.17188 7.35741 7.35626 1.17188 15 1.17188C22.6426 1.17188 28.8281 7.35626 28.8281 15C28.8281 21.915 23.8136 27.4484 17.5207 28.6004C17.2023 28.6588 16.9915 28.9641 17.0499 29.2825C17.1082 29.6008 17.4136 29.8114 17.7317 29.7533C24.5453 28.5061 30 22.5151 30 15C30 6.70967 23.2915 0 15 0V0Z" fill="#501B32"/>
</svg>
