<svg id="Capa_1" enable-background="new 0 0 512.001 512.001" height="512" viewBox="0 0 512.001 512.001" width="512" xmlns="http://www.w3.org/2000/svg"><g><ellipse cx="323.39" cy="182.601" rx="17.288" ry="17.288" transform="matrix(.987 -.16 .16 .987 -25.074 54.159)"/><path d="m499.742 125.696c-16.121-14-38.656-18.392-58.815-11.464-2.705.93-5.316 2.053-7.824 3.341.971-6.776 1.56-13.638 1.75-20.559 12.768-15.255 17.23-36.088 11.624-55.299-5.97-20.462-22.56-36.335-43.295-41.426-3.479-.855-7.145.216-9.617 2.806-14.745 15.442-20.196 37.747-14.225 58.209 5.188 17.781 18.398 32.093 35.376 38.879-1.249 24.655-8.174 48.386-20.112 69.583l-19.719-19.719c-4.458-12.582-13.165-23.182-24.738-30.041-12.782-7.576-27.986-9.822-42.81-6.325-23.988 5.658-42.202 25.365-46.403 50.207l-2.757 16.302-170.128-177.117c-2.075-2.161-5.008-3.276-7.995-3.042-2.986.234-5.71 1.795-7.422 4.253l-8.95 12.848c-14.77 21.201-19.14 47.601-11.99 72.43 1.515 5.26 3.509 10.302 5.931 15.083l-34.898-14.82c-3.09-1.312-6.63-.987-9.427.865-2.798 1.852-4.481 4.984-4.481 8.339v24.624c0 19.601 6.235 38.346 17.553 53.787v.004l7.24 38.932c2.736 14.711 10.007 27.834 20.796 37.813 4.758 23.302 18.106 43.5 37.766 56.995 15.39 10.563 33.22 16.057 51.492 16.057 4.684 0 9.398-.384 14.107-1.113l-.156.203c-12.731 16.558-29.92 28.843-49.709 35.528l-75.686 25.565c-2.91.983-5.206 3.248-6.229 6.144-1.022 2.896-.658 6.101.988 8.692l66.764 105.102c1.691 2.663 4.54 4.371 7.686 4.609.252.02.505.029.756.029 2.876 0 5.629-1.241 7.536-3.427l62.081-71.187c8.54-9.792 21.391-14.913 34.379-13.704 5.196.485 10.48.73 15.705.73 92.465 0 167.691-75.226 167.691-167.692 0-15.881-1.133-29.666-3.478-41.97 11.219-11.877 20.642-25.058 28.127-39.181 9.167 5.274 19.557 8.031 30.048 8.031 6.515 0 13.067-1.06 19.385-3.231 20.158-6.929 35.232-24.249 39.338-45.201.69-3.512-.553-7.124-3.255-9.472zm-101.203-69.994c-3.407-11.676-1.228-24.257 5.644-34.097 11.085 4.601 19.688 14.036 23.095 25.711 3.407 11.676 1.228 24.257-5.644 34.097-11.086-4.6-19.688-14.035-23.095-25.711zm-290.358 70.414c-18.211-7.734-31.796-23.074-37.271-42.087s-2.128-39.229 9.182-55.463l1.981-2.843 144.88 150.833zm113.705 278.297c-4.607 0-9.267-.217-13.848-.644-19.371-1.805-38.554 5.846-51.309 20.472l-53.282 61.097-19.12-30.099 32.686-23.653c4.475-3.237 5.477-9.489 2.239-13.963s-9.49-5.477-13.963-2.239l-31.705 22.943-22.889-36.033 63.61-21.487c23.553-7.957 44.012-22.579 59.165-42.286l38.817-50.486c3.366-4.378 2.546-10.656-1.833-14.023-4.378-3.366-10.656-2.545-14.023 1.833l-20.469 26.622-19.066 3.546c-18.729 3.485-37.698-.536-53.407-11.318-9.577-6.573-17.23-15.189-22.546-25.152 6.5 2.012 13.267 3.039 20.118 3.039 4.221 0 8.477-.39 12.716-1.178l44.739-8.32c5.43-1.01 9.013-6.23 8.003-11.66s-6.232-9.015-11.66-8.003l-44.74 8.32c-12.804 2.381-25.769-.367-36.506-7.736-10.737-7.37-17.962-18.48-20.343-31.284l-2.27-12.221c19.446 12.404 42.886 17.009 65.875 12.65 5.426-1.029 8.991-6.262 7.962-11.688-1.028-5.426-6.258-8.988-11.688-7.962-20.872 3.958-42.228-1.544-58.589-15.095s-25.745-33.507-25.745-54.751v-9.513l231.682 98.389c2.816 1.196 6.026 1.036 8.71-.433 2.684-1.47 4.548-4.087 5.058-7.104l6.387-37.769c2.857-16.893 15.133-30.269 31.275-34.076 19.68-4.641 38.864 6.192 44.637 25.197.478 1.572 1.335 3.002 2.497 4.165l13.388 13.388c-4.271.658-8.111 3.061-10.571 6.704-2.908 4.305-3.486 9.75-1.547 14.567 6.309 15.672 9.247 34.595 9.247 59.553 0 81.436-66.254 147.691-147.692 147.691zm235.273-242.956c-11.501 3.954-24.172 2.37-34.325-4.03 4.073-11.29 13.091-20.328 24.594-24.281 11.502-3.954 24.172-2.37 34.324 4.03-4.072 11.29-13.091 20.327-24.593 24.281z"/></g></svg>