<svg width="25" height="34" viewBox="0 0 25 34" fill="none" xmlns="http://www.w3.org/2000/svg">
<path d="M5.92105 12.5C5.92105 16.1277 8.87233 19.0789 12.5 19.0789C16.1277 19.0789 19.0789 16.1277 19.0789 12.5C19.0789 8.87233 16.1277 5.92105 12.5 5.92105C8.87233 5.92105 5.92105 8.87233 5.92105 12.5ZM12.5 7.23684C15.4022 7.23684 17.7632 9.59781 17.7632 12.5C17.7632 15.4022 15.4022 17.7632 12.5 17.7632C9.59781 17.7632 7.23684 15.4022 7.23684 12.5C7.23684 9.59781 9.59781 7.23684 12.5 7.23684Z" fill="#501B32"/>
<path d="M13.1579 0.657895C13.1579 1.02128 12.8634 1.31579 12.5 1.31579C12.1366 1.31579 11.8421 1.02128 11.8421 0.657895C11.8421 0.294511 12.1366 0 12.5 0C12.8634 0 13.1579 0.294511 13.1579 0.657895Z" fill="#501B32"/>
<path d="M9.39941 0.387803C3.86513 1.80048 0 6.7812 0 12.5C0 17.7123 1.79045 19.845 11.9737 33.4211C12.0981 33.5868 12.2929 33.6842 12.5 33.6842C12.7071 33.6842 12.9019 33.5868 13.0263 33.4211C23.2078 19.8476 25 17.7105 25 12.5C25 6.7812 21.1349 1.80048 15.6006 0.387803C15.2485 0.298114 14.8903 0.510387 14.8003 0.862464C14.7106 1.21454 14.9232 1.57278 15.2752 1.66273C20.2262 2.92635 23.6842 7.38307 23.6842 12.5C23.6842 17.1664 22.2168 18.9826 12.5 31.93C2.78706 18.9867 1.31579 17.1708 1.31579 12.5C1.31579 7.38307 4.77385 2.92635 9.72476 1.66273C10.0771 1.57278 10.2894 1.21454 10.1997 0.862464C10.1097 0.510387 9.75149 0.297857 9.39941 0.387803V0.387803Z" fill="#501B32"/>
</svg>
