<svg height="480pt" viewBox="-168 0 480 480" width="480pt" xmlns="http://www.w3.org/2000/svg"><path d="m40 432c-22.082031.027344-39.9726562 17.917969-40 40v8h144v-8c-.027344-22.082031-17.917969-39.972656-40-40h-8v-112c26.59375-.382812 47.964844-22.035156 48-48.632812v-271.367188h-144v271.335938c.0195312 26.609374 21.390625 48.28125 48 48.664062v112zm64 16c10.167969.011719 19.230469 6.417969 22.632812 16h-109.265624c3.402343-9.582031 12.464843-15.988281 22.632812-16zm24-432v16h-56v16h56v31.777344c-1.296875.109375-2.601562.222656-4 .222656-7.824219.199219-15.496094-2.195312-21.816406-6.816406-18.269532-12.246094-42.128906-12.246094-60.398438 0-6.324218 4.625-14.003906 7.019531-21.832031 6.816406-1.402344 0-2.671875-.105469-3.953125-.214844v-63.785156zm-112 255.335938v-175.457032c1.28125.082032 2.601562.121094 3.953125.121094 10.777344.214844 21.347656-3 30.183594-9.183594 13.125-9.089844 30.507812-9.089844 43.632812 0 8.847657 6.191406 19.433594 9.40625 30.230469 9.183594 1.382812 0 2.71875-.039062 4-.121094v175.457032c-.023438 18.03125-14.632812 32.640624-32.664062 32.664062h-46.671876c-18.03125-.023438-32.640624-14.632812-32.664062-32.664062zm48 48.664062h16v112h-16zm0 0"/><path d="m40 32h16v16h-16zm0 0"/><path d="m80 288v-16h-12c-11.046875 0-20-8.953125-20-20v-20h-16v20c.023438 19.875 16.125 35.976562 36 36zm0 0"/><path d="m32 184h16v32h-16zm0 0"/></svg>