<svg height="512pt" viewBox="-5 0 512 512" width="512pt" xmlns="http://www.w3.org/2000/svg"><path d="m338.230469 182.347656c-1.679688 2.46875-4.125 2.765625-5.121094 2.765625-.992187 0-3.484375-.269531-5.121094-2.765625-2.277343-3.460937-6.925781-4.425781-10.386719-2.152344-3.460937 2.277344-4.425781 6.925782-2.152343 10.386719 3.921875 5.96875 10.523437 9.53125 17.660156 9.53125 7.140625 0 13.742187-3.5625 17.660156-9.53125 2.273438-3.460937 1.3125-8.109375-2.148437-10.386719-1.269532-.832031-6.882813-2.992187-10.390625 2.152344zm0 0"/><path d="m258.308594 175.253906c-2.929688 2.929688-2.929688 7.679688 0 10.609375 2.929687 2.925781 7.679687 2.925781 10.609375-.003906.859375-.859375 1.863281-.988281 2.386719-.988281.523437 0 1.453124.207031 2.386718.988281 4.734375 3.964844 9.144532 1.464844 10.605469.003906 2.929687-2.929687 2.929687-7.679687 0-10.609375-3.46875-3.46875-8.085937-5.382812-12.992187-5.382812-4.910157 0-9.523438 1.914062-12.996094 5.382812zm0 0"/><path d="m381.921875 175.253906c-2.929687 2.929688-2.929687 7.679688 0 10.609375 2.929687 2.925781 7.679687 2.925781 10.609375-.003906.859375-.859375 1.863281-.988281 2.386719-.988281.519531 0 1.453125.207031 2.386719.988281 4.734374 3.964844 9.144531 1.464844 10.605468.003906 2.929688-2.929687 2.929688-7.679687 0-10.609375-3.46875-3.46875-8.085937-5.382812-12.992187-5.382812-4.910157 0-9.523438 1.914062-12.996094 5.382812zm0 0"/><path d="m224.125 364.519531v12.449219c0 4.144531 3.355469 7.5 7.5 7.5 4.140625 0 7.5-3.355469 7.5-7.5v-12.449219c0-4.140625-3.359375-7.5-7.5-7.5-4.144531 0-7.5 3.359375-7.5 7.5zm0 0"/><path d="m100.511719 364.519531v12.449219c0 4.144531 3.355469 7.5 7.5 7.5 4.140625 0 7.5-3.355469 7.5-7.5v-12.449219c0-4.140625-3.359375-7.5-7.5-7.5-4.144531 0-7.5 3.359375-7.5 7.5zm0 0"/><path d="m169.816406 366.09375c-7.140625 0-13.738281 3.5625-17.660156 9.53125-2.273438 3.460938-1.3125 8.109375 2.152344 10.386719 3.460937 2.273437 8.109375 1.308593 10.382812-2.152344 1.640625-2.496094 4.132813-2.765625 5.125-2.765625.992188 0 3.441406.296875 5.121094 2.765625 3.507812 5.144531 9.117188 2.984375 10.386719 2.152344 3.464843-2.277344 4.425781-6.925781 2.152343-10.386719-3.921874-5.96875-10.519531-9.53125-17.660156-9.53125zm0 0"/><path d="m486.261719 278.328125c-3.667969-13.640625-2.535157-28.597656 3.195312-42.117187 13.046875-30.792969 16.707031-64.511719 10.578125-97.507813-6.273437-33.796875-22.488281-64.554687-46.882812-88.949219-2.929688-2.929687-7.679688-2.929687-10.609375 0-2.929688 2.929688-2.929688 7.675782 0 10.605469 22.246093 22.242187 37.023437 50.28125 42.746093 81.082031 5.585938 30.09375 2.25 60.839844-9.644531 88.917969-7.027343 16.585937-8.402343 35.003906-3.871093 51.863281l5.105468 18.984375c.960938 3.570313-.027344 7.265625-2.640625 9.882813-2.613281 2.613281-6.3125 3.601562-9.878906 2.640625l-18.894531-5.082031c-16.972656-4.5625-35.324219-3.242188-51.664063 3.722656-28.101562 11.972656-58.898437 15.363281-89.058593 9.792968-30.863282-5.695312-58.957032-20.484374-81.242188-42.769531-29.277344-29.277343-45.324219-68.355469-45.183594-110.035156.144532-41.695313 16.464844-80.675781 45.953125-109.761719 25.488281-25.144531 59.136719-40.757812 94.742188-43.96875 35.171875-3.175781 70.621093 5.800782 99.824219 25.273438 3.445312 2.296875 8.101562 1.367187 10.398437-2.078125 2.300781-3.445313 1.367187-8.101563-2.078125-10.402344-32.035156-21.367187-70.917969-31.21875-109.488281-27.734375-39.066407 3.523438-75.976563 20.652344-103.929688 48.230469-32.359375 31.914062-49.011719 73.769531-50.394531 123.441406-42.914062 1.621094-83.046875 19.097656-113.570312 49.617187-24.394532 24.398438-40.609376 55.15625-46.882813 88.953126-6.128906 32.996093-2.46875 66.714843 10.578125 97.507812 5.730469 13.515625 6.863281 28.472656 3.195312 42.117188l-5.105468 18.984374c-2.371094 8.8125.066406 17.929688 6.523437 24.382813 6.453125 6.453125 15.570313 8.890625 24.382813 6.519531l18.894531-5.082031c13.746094-3.695313 28.621094-2.617187 41.886719 3.035156 21.183594 9.027344 43.753906 13.605469 66.539062 13.605469 54.339844 0 95.804688-25.332031 120.246094-49.773438 25.914062-25.910156 42.429688-58.824218 47.761719-95.179687.601562-4.097656-2.234375-7.90625-6.332031-8.507813-4.089844-.59375-7.910157 2.230469-8.507813 6.332032-4.863281 33.140625-19.914063 63.136718-43.527344 86.75-22.285156 22.28125-50.375 37.074218-81.242187 42.773437-30.152344 5.5625-60.953125 2.179688-89.058594-9.796875-16.339844-6.964844-34.6875-8.285156-51.660156-3.722656l-18.898438 5.082031c-3.570312.957031-7.265625-.027343-9.878906-2.640625-2.613281-2.617187-3.601562-6.308594-2.640625-9.882812l5.101563-18.984375c4.535156-16.859375 3.160156-35.277344-3.867188-51.863281-11.894531-28.074219-15.230469-58.820313-9.644531-88.917969 5.71875-30.800781 20.5-58.839844 42.746093-81.082031 27.890626-27.890626 64.582032-43.835938 103.8125-45.25 3.90625 38.863281 20.835938 74.804687 48.699219 102.667968 24.441407 24.4375 55.261719 40.660156 89.125 46.910156 10.34375 1.910157 20.753907 2.859376 31.125 2.859376 22.777344 0 45.355469-4.578126 66.539063-13.605469 13.261718-5.652344 28.140625-6.730469 41.882812-3.035157l18.898438 5.085938c8.808594 2.363281 17.929687-.070312 24.382812-6.523438 6.453125-6.453124 8.890625-15.566406 6.523438-24.382812zm0 0"/></svg>