<svg width="97" height="110" viewBox="0 0 97 110" fill="none" xmlns="http://www.w3.org/2000/svg">
<path d="M15.3345 73.977C15.109 73.1252 15.6077 72.2494 16.4448 72.0196C17.282 71.7961 18.1429 72.3035 18.3626 73.1553L19.9004 78.9727H30.0352C32.0897 78.9727 33.9599 79.8305 35.3136 81.2078C36.6614 82.5792 37.5045 84.482 37.5045 86.5722C37.5045 88.6624 36.6614 90.5652 35.3136 91.9425C34.3874 92.8789 33.2237 93.5796 31.9234 93.924L34.7318 107.178C34.9098 108.042 34.3696 108.888 33.5205 109.069C32.6714 109.256 31.8403 108.7 31.6623 107.843L28.7708 94.1719H16.9616L14.0699 107.843C13.8919 108.7 13.0608 109.256 12.2116 109.069C11.3625 108.888 10.8224 108.042 11.0004 107.178L13.7731 94.0811C12.6152 93.9603 11.5171 93.6945 10.5256 93.1931C8.86294 92.3534 7.58655 90.9277 6.95715 88.5415L0.253692 63.0793C-0.80906 59.0438 1.5659 54.8573 5.53205 53.776C9.48606 52.7009 13.6185 55.1352 14.6754 59.1525L16.5219 66.16C16.7475 67.0118 16.2488 67.8877 15.4116 68.1112C14.5745 68.3407 13.7134 67.8333 13.4937 66.9815L11.6474 59.9741C11.0299 57.6482 8.63129 56.2406 6.34535 56.8629C4.0416 57.4913 2.67012 59.9197 3.28172 62.2575L9.99104 87.7145C10.3532 89.0918 11.036 89.8892 11.9146 90.3363C12.9179 90.8438 14.2538 90.9767 15.6967 90.9767H30.0352C31.2228 90.9767 32.3034 90.4813 33.0871 89.684C33.8768 88.8804 34.3637 87.781 34.3637 86.5728C34.3637 85.3647 33.8768 84.2651 33.0871 83.4676C32.3034 82.6642 31.2228 82.1689 30.0352 82.1689H18.7664C18.0182 82.1689 17.3771 81.74 17.1813 80.9849L15.3345 73.977ZM72.1484 1.62397L73.3241 4.62625L76.3223 5.94326C76.6964 6.1065 76.9932 6.34199 77.2188 6.61988C77.5038 6.97023 77.6821 7.39922 77.7414 7.83418C77.8006 8.26317 77.7414 8.71623 77.5631 9.13286C77.4029 9.50751 77.1178 9.84593 76.8089 10.1117L74.3866 12.1594L74.0779 15.4761C74.0362 15.9413 73.8701 16.346 73.6326 16.6782C73.3892 17.0226 73.0507 17.2883 72.6708 17.4575C72.2967 17.6267 71.887 17.6992 71.4773 17.663C71.0796 17.6208 70.6877 17.4816 70.3375 17.234L67.6658 15.5185L64.4656 16.2432C64.0856 16.3278 63.7174 16.3219 63.3789 16.2311C62.9456 16.1224 62.5537 15.8867 62.245 15.5666C61.9482 15.2525 61.7285 14.8476 61.6273 14.3945C61.5443 14.0139 61.5561 13.6273 61.6453 13.2529L62.4469 10.0514L60.7843 7.18782C60.5704 6.81935 60.4636 6.42062 60.4577 6.01593C60.4458 5.57501 60.5528 5.15199 60.7545 4.77755C60.9623 4.40909 61.2591 4.08879 61.6273 3.86523C61.9718 3.65383 62.3459 3.55708 62.7437 3.533L65.9436 3.32159L68.105 0.820759C68.6632 0.180367 69.506 -0.115642 70.3314 0.0414196C71.1805 0.198268 71.8636 0.796465 72.1484 1.62397V1.62397ZM70.6582 6.40848L69.6608 3.85927L67.8855 5.90724C67.6063 6.22755 67.2146 6.43277 66.793 6.46303L64.1095 6.63821L65.4395 8.92785C65.6709 9.29035 65.766 9.74939 65.6531 10.2025L64.9823 12.8663L67.5531 12.2803C67.9567 12.1716 68.4078 12.2259 68.7938 12.4736L71.0737 13.9415L71.329 11.2533C71.3646 10.8062 71.5429 10.4196 71.8872 10.1298L73.9652 8.37782L71.5249 7.30247C71.1449 7.14541 70.8184 6.83129 70.6582 6.40848V6.40848ZM24.2879 14.1047L27.4288 13.1623C27.8029 13.0475 28.1829 13.0355 28.5331 13.102C28.9784 13.1864 29.3822 13.398 29.7029 13.694C30.0174 13.99 30.2608 14.3707 30.3857 14.8056C30.4986 15.1922 30.5103 15.5911 30.4271 15.9837L29.8511 19.1976L31.7037 21.9522C31.959 22.3328 32.0895 22.7435 32.1134 23.1603C32.1432 23.6315 32.0361 24.0967 31.8105 24.5014C31.6325 24.8275 31.3833 25.1116 31.0743 25.323C30.7419 25.5527 30.3498 25.7036 29.9104 25.74L26.8053 26.1569L24.8044 28.8028C24.5669 29.1108 24.276 29.3465 23.9614 29.5035C23.5517 29.703 23.1064 29.7752 22.6731 29.7271C22.2397 29.6849 21.8181 29.5157 21.4559 29.2378C21.1531 28.9961 20.8802 28.6517 20.7317 28.2892L19.36 25.3654L16.2785 24.2538C15.8808 24.1089 15.5423 23.8672 15.2811 23.5652C14.9961 23.233 14.812 22.8343 14.7347 22.4115C14.6576 22.0006 14.6813 21.5597 14.8239 21.155C14.9546 20.7805 15.1682 20.4543 15.4533 20.1883L17.8044 17.9108L17.8934 14.5823C17.9112 13.7364 18.3802 12.9511 19.1047 12.5345C19.8231 12.1236 20.6958 12.1177 21.4143 12.5224L24.2879 14.1047ZM23.3676 17.2218L20.9868 15.911L20.9156 18.5872C20.9214 19.0222 20.7612 19.4512 20.4288 19.7713L18.4753 21.662L21.0104 22.5741C21.3904 22.713 21.7169 22.9969 21.901 23.3956L23.0647 25.8724L24.7152 23.6914C24.9588 23.3713 25.3268 23.1418 25.7543 23.0875L28.426 22.725L26.918 20.4837C26.6746 20.1272 26.5737 19.7043 26.6509 19.2694L27.1377 16.5691L24.5967 17.3363C24.2048 17.4635 23.7595 17.4394 23.3676 17.2218V17.2218ZM67.826 55.854V58.1375H72.374C73.2468 58.1375 73.9474 58.8503 73.9474 59.7322V71.7355C73.9474 72.6176 73.2468 73.3305 72.374 73.3305H55.1735V107.51C55.1735 108.392 54.467 109.111 53.6001 109.111H43.3999C42.5329 109.111 41.8265 108.392 41.8265 107.51V73.3307H24.6201C23.7532 73.3307 23.0528 72.6178 23.0528 71.7358V59.7324C23.0528 58.8503 23.7534 58.1377 24.6201 58.1377H29.174V55.8542C28.1646 55.5763 27.2623 55.0327 26.5498 54.3017C25.4751 53.2083 24.8101 51.698 24.8101 50.0308V46.9983C24.8101 46.1162 25.5109 45.3974 26.3776 45.3974H35.1052C35.978 45.3974 36.6786 46.1162 36.6786 46.9983V50.0308C36.6786 51.6982 36.0136 53.2085 34.9389 54.3017C34.2205 55.0327 33.324 55.5763 32.3147 55.8542V58.1377H39.9737V44.1345C39.9737 42.4612 40.4426 40.8965 41.2622 39.5614C41.9272 38.4801 42.8178 37.5558 43.8686 36.8611V29.3703C43.8686 28.4883 44.5692 27.7756 45.4359 27.7756H51.558C52.4305 27.7756 53.1314 28.4885 53.1314 29.3703V36.8611C54.1822 37.5558 55.0727 38.4801 55.7378 39.5614C56.5513 40.8904 57.0263 42.4612 57.0263 44.1345V45.995C57.0263 46.877 56.3257 47.5899 55.4529 47.5899C54.586 47.5899 53.8856 46.877 53.8856 45.995V44.1345C53.8856 43.0713 53.5886 42.0865 53.0721 41.2469C52.5556 40.4072 51.8252 39.7125 50.9583 39.2594C50.3884 39.0178 49.9904 38.4439 49.9904 37.7794V30.9712H47.01V37.7794H47.0041C47.0041 38.3714 46.6834 38.9334 46.1313 39.2111C45.2229 39.6701 44.4567 40.377 43.9227 41.2469C43.412 42.0865 43.1152 43.0713 43.1152 44.1345V58.1377H53.8856V53.2324C53.8856 52.3503 54.5862 51.6375 55.4529 51.6375C56.3257 51.6375 57.0263 52.3503 57.0263 53.2324V58.1377H64.6853V55.8542C63.6759 55.5763 62.7736 55.0327 62.055 54.3017C60.9862 53.2083 60.3214 51.698 60.3214 50.0308V46.9983C60.3214 46.1162 61.022 45.3974 61.8889 45.3974H70.6165C71.4834 45.3974 72.1901 46.1162 72.1901 46.9983V50.0308C72.1901 51.6982 71.5251 53.2085 70.4504 54.3017C69.7318 55.0325 68.8353 55.5761 67.826 55.854ZM68.2298 52.0424C68.7346 51.5288 69.0492 50.8159 69.0492 50.0306V48.5989H63.4623V50.0306C63.4623 50.8159 63.7771 51.5288 64.2817 52.0424C64.7864 52.5557 65.481 52.876 66.2528 52.876C67.0246 52.8758 67.725 52.5557 68.2298 52.0424ZM32.7189 52.0424C33.2235 51.5288 33.5383 50.8159 33.5383 50.0306V48.5989H27.9514V50.0306C27.9514 50.8159 28.266 51.5288 28.7708 52.0424C29.2756 52.5557 29.9701 52.876 30.7421 52.876C31.5135 52.8758 32.2142 52.5557 32.7189 52.0424ZM68.2298 94.1721L65.3383 107.843C65.1601 108.701 64.329 109.256 63.4799 109.069C62.6308 108.888 62.0906 108.042 62.2686 107.178L65.0769 93.9242C63.7769 93.5799 62.613 92.8792 61.687 91.9428C60.3333 90.5654 59.4959 88.6624 59.4959 86.5724C59.4959 84.4822 60.3331 82.5792 61.687 81.208C63.0407 79.8307 64.9108 78.9729 66.9653 78.9729H77.1002L82.3191 59.1525C83.3819 55.1352 87.5143 52.7009 91.4683 53.776C95.4286 54.8573 97.8094 59.0438 96.7467 63.0793L94.3183 72.3158C94.0927 73.1676 93.2317 73.6691 92.3945 73.4455C91.5573 73.2158 91.0586 72.3399 91.2842 71.4881L93.7126 62.2575C94.3301 59.9197 92.9527 57.4913 90.6548 56.8629C88.3689 56.2406 85.9644 57.6482 85.3528 59.9741L79.8193 80.9847C79.6294 81.7216 78.988 82.1687 78.2577 82.1687H66.9651C65.7776 82.1687 64.697 82.664 63.9074 83.4674C63.1236 84.2649 62.6368 85.3643 62.6368 86.5726C62.6368 87.7807 63.1238 88.8802 63.9074 89.6838C64.697 90.4813 65.7776 90.9765 66.9651 90.9765H81.3037C82.7466 90.9765 84.0825 90.8435 85.0857 90.3361C85.9644 89.889 86.6472 89.0916 87.0093 87.7142L89.4436 78.4836C89.6633 77.6318 90.5241 77.1244 91.3613 77.354C92.1985 77.5775 92.6972 78.4534 92.4716 79.3052L90.0432 88.5417C89.4138 90.9279 88.1372 92.3536 86.4748 93.1933C85.4772 93.6947 84.3788 93.9605 83.2271 94.0813L85.9998 107.178C86.178 108.042 85.6377 108.888 84.7885 109.069C83.9396 109.256 83.1083 108.701 82.9303 107.843L80.0388 94.1721H68.2298ZM70.8065 61.3333C55.9336 61.3333 41.0666 61.3333 26.1937 61.3333V70.1351H70.8065V61.3333ZM52.0328 73.3307H44.9674V105.91H52.0328V73.3307Z" fill="black"/>
</svg>
