<svg width="70" height="70" viewBox="0 0 70 70" fill="none" xmlns="http://www.w3.org/2000/svg">
<path d="M45.273 60.3848C45.273 62.6369 40.6823 64.4629 35.0191 64.4629C29.356 64.4629 24.7652 62.6369 24.7652 60.3848C24.7652 58.1322 29.356 54.6191 35.0191 54.6191C40.6823 54.6191 45.273 58.1322 45.273 60.3848Z" fill="#BF4479"/>
<path d="M35.0191 54.6191C34.3168 54.6191 33.6311 54.6731 32.9684 54.7719C37.6488 55.471 41.1715 58.4115 41.1715 60.3848C41.1715 62.3576 37.6488 64.0036 32.9684 64.3812C33.6311 64.4351 34.3168 64.4629 35.0191 64.4629C40.6823 64.4629 45.273 62.6369 45.273 60.3848C45.273 58.1322 40.6823 54.6191 35.0191 54.6191V54.6191Z" fill="#951C50"/>
<path d="M35 57.3535C33.8673 57.3535 32.9492 56.4355 32.9492 55.3027V16.6113H37.0508V55.3027C37.0508 56.4355 36.1327 57.3535 35 57.3535Z" fill="#BF4479"/>
<path d="M68.9746 14.6967V18.7993C68.9746 23.9327 53.763 28.0957 35 28.0957C16.237 28.0957 1.02539 23.9327 1.02539 18.7993V14.6967H68.9746Z" fill="#BF4479"/>
<path d="M64.873 14.6967V18.7993C64.873 23.7447 50.7579 27.7891 32.9492 28.0791C33.6275 28.0904 34.3116 28.0957 35 28.0957C53.763 28.0957 68.9746 23.9327 68.9746 18.7993V14.6967H64.873Z" fill="#951C50"/>
<path d="M68.9746 14.6967C68.9746 9.5623 53.7636 5.40039 35 5.40039C16.2364 5.40039 1.02539 9.5623 1.02539 14.6967C1.02539 19.8312 16.2364 23.9931 35 23.9931C53.7636 23.9931 68.9746 19.8312 68.9746 14.6967Z" fill="#BF4479"/>
<path d="M35 5.40039C34.3116 5.40039 33.6275 5.40573 32.9492 5.41695C50.7579 5.70694 64.873 9.75082 64.873 14.6967C64.873 19.6426 50.7579 23.686 32.9492 23.9765C33.6275 23.9872 34.3116 23.9931 35 23.9931C53.7636 23.9931 68.9746 19.8312 68.9746 14.6967C68.9746 9.5623 53.7636 5.40039 35 5.40039Z" fill="#951C50"/>
<path d="M70 14.6967C70 7.99271 51.967 4.375 35 4.375C27.662 4.375 20.6579 5.00145 14.7443 6.18652C14.1888 6.29761 13.8294 6.83807 13.9405 7.39349C14.0516 7.94891 14.5921 8.3094 15.1475 8.19725C27.9723 5.62683 46.6099 5.78972 58.7527 9.11209C63.1988 10.3287 67.9492 12.4345 67.9492 14.6967C67.9492 21.4344 32.9188 26.211 11.2473 20.2814C6.80122 19.0648 2.05078 16.959 2.05078 14.6967C2.05078 12.4777 6.65916 10.3965 10.9717 9.18846C11.517 9.03572 11.8353 8.46962 11.6825 7.92435C11.5298 7.37907 10.9642 7.06078 10.4184 7.21352C3.60275 9.12277 0 11.7103 0 14.6967V18.7988C0 25.0809 15.8936 28.688 31.9238 29.0837V48.0054C31.9238 48.5715 32.3826 49.0308 32.9492 49.0308C33.5159 49.0308 33.9746 48.5715 33.9746 48.0054V29.1168C34.6315 29.1222 35.3124 29.1227 36.0254 29.1168V54.7601V54.7831V55.3027C36.0254 55.8683 35.5656 56.3281 35 56.3281C34.4344 56.3281 33.9746 55.8683 33.9746 55.3027V54.7858C33.9746 54.7799 33.9746 54.774 33.9746 54.7681V52.4316C33.9746 51.8655 33.5159 51.4062 32.9492 51.4062C32.3826 51.4062 31.9238 51.8655 31.9238 52.4316V53.9195C27.473 54.8637 23.7399 57.7535 23.7399 60.3848C23.7399 61.9224 25.0361 63.2848 27.3897 64.221C29.4442 65.0386 32.154 65.4883 35.0192 65.4883C37.8844 65.4883 40.5937 65.0386 42.6488 64.221C45.0024 63.2848 46.2985 61.9224 46.2985 60.3848C46.2985 59.0524 45.287 57.5517 43.5241 56.2678C41.993 55.1527 40.0848 54.3307 38.0762 53.9115V29.0842C44.5676 28.9262 50.7136 28.2693 55.9094 27.1755C56.4632 27.0586 56.8179 26.5149 56.7014 25.9605C56.5845 25.4062 56.0397 25.0521 55.487 25.1685C42.3705 27.9301 22.8465 27.7464 10.5941 24.2003C0.840607 21.3767 2.1656 18.5313 2.05078 18.378C7.24342 22.7151 21.4611 25.0185 35 25.0185C48.5389 25.0185 62.7566 22.7151 67.9492 18.378V18.7988C67.9492 19.4744 67.3495 21.8552 59.6307 24.1341C59.0876 24.2943 58.7773 24.8647 58.9381 25.4078C59.0988 25.9536 59.6708 26.2607 60.2118 26.1005C66.6151 24.2104 70 21.6854 70 18.7988V14.6967ZM44.2477 60.3848C44.2477 61.6292 40.6525 63.4375 35.0192 63.4375C29.3855 63.4375 25.7907 61.6292 25.7907 60.3848C25.7907 59.2868 28.1763 56.9118 32.0039 56.0018C32.3212 57.3626 33.5442 58.3789 35 58.3789C36.459 58.3789 37.6836 57.3583 37.9982 55.9933C41.8477 56.8969 44.2477 59.2799 44.2477 60.3848Z" fill="#501B32"/>
</svg>
