<svg width="70" height="63" viewBox="0 0 70 63" fill="none" xmlns="http://www.w3.org/2000/svg">
<path d="M70 11.0348C70 4.21364 51.967 0.532745 35 0.532745C27.662 0.532745 20.6579 1.17014 14.7443 2.37591C14.1888 2.48894 13.8294 3.03884 13.9405 3.60396C14.0516 4.16908 14.5921 4.53587 15.1475 4.42176C27.9723 1.80644 46.6099 1.97218 58.7527 5.35258C63.1988 6.59041 67.9492 8.73298 67.9492 11.0348C67.9492 17.8901 32.9188 22.7502 11.2473 16.717C6.80122 15.4791 2.05078 13.3366 2.05078 11.0348C2.05078 8.777 6.65916 6.65942 10.9717 5.43028C11.517 5.27488 11.8353 4.69889 11.6825 4.14409C11.5298 3.58929 10.9642 3.26543 10.4184 3.42084C3.60275 5.36345 0 7.99615 0 11.0348V15.2085C0 21.6004 15.8936 25.2704 31.9238 25.673V44.9252C31.9238 45.5012 32.3826 45.9685 32.9492 45.9685C33.5159 45.9685 33.9746 45.5012 33.9746 44.9252V25.7067C34.6315 25.7122 35.3124 25.7127 36.0254 25.7067V52.35C36.0254 52.9255 35.5656 53.3933 35 53.3933C34.4344 53.3933 33.9746 52.9255 33.9746 52.35V49.4288C33.9746 48.8528 33.5159 48.3855 32.9492 48.3855C32.3826 48.3855 31.9238 48.8528 31.9238 49.4288V50.9427C27.473 51.9034 23.7399 54.8436 23.7399 57.5209C23.7399 59.0853 25.0361 60.4715 27.3897 61.424C29.4442 62.256 32.154 62.7135 35.0192 62.7135C37.8844 62.7135 40.5937 62.256 42.6488 61.424C45.0024 60.4715 46.2985 59.0853 46.2985 57.5209C46.2985 56.1652 45.287 54.6382 43.5241 53.3319C41.993 52.1974 40.0848 51.3611 38.0762 50.9345V25.6736C44.5676 25.5127 50.7136 24.8444 55.9094 23.7315C56.4632 23.6125 56.8179 23.0594 56.7014 22.4953C56.5845 21.9313 56.0397 21.571 55.487 21.6895C42.3705 24.4993 22.8465 24.3124 10.5941 20.7043C0.840607 17.8314 2.1656 14.9363 2.05078 14.7803C7.24342 19.1932 21.4611 21.5368 35 21.5368C48.5389 21.5368 62.7566 19.1932 67.9492 14.7803V15.2085C67.9492 15.8959 67.3495 18.3183 59.6307 20.6369C59.0876 20.8 58.7773 21.3803 58.9381 21.9329C59.0988 22.4883 59.6708 22.8007 60.2118 22.6377C66.6151 20.7146 70 18.1455 70 15.2085V11.0348ZM44.2477 57.5209C44.2477 58.787 40.6525 60.6269 35.0192 60.6269C29.3855 60.6269 25.7907 58.787 25.7907 57.5209C25.7907 56.4037 28.1763 53.9873 32.0039 53.0613C32.3212 54.4459 33.5442 55.4799 35 55.4799C36.459 55.4799 37.6836 54.4415 37.9982 53.0526C41.8477 53.972 44.2477 56.3966 44.2477 57.5209Z" fill="black"/>
</svg>
