<svg id="Layer_1" enable-background="new 0 0 512 512" height="512" viewBox="0 0 512 512" width="512" xmlns="http://www.w3.org/2000/svg"><g><path d="m496.574 417.831c2.75-51.881-21.804-100.939-70.49-123.079-8.543-3.888-15.142 9.593-6.209 13.654 10.407 4.733 19.789 11.054 27.92 18.591h-8.857c-17.392 0-31.54 14.126-31.54 31.491 0 17.364 14.148 31.49 31.54 31.49h41.72c1.148 8.296 1.046 16.669.998 25.021h-70.193c-9.082-6.89-20.399-10.99-32.66-10.99-28.879 0-52.544 22.708-54.017 51.177h-150.036c-1.473-28.468-25.138-51.177-54.017-51.177-12.261 0-23.578 4.1-32.66 10.99h-52.936c0-.042-.003-.085-.003-.127v-52.755h16.596c21.147 0 38.351-17.176 38.351-38.288v-24.819c52.365 0 293.099.219 293.099.219 9.373.618 10.75-14.34.961-14.969-9.529-.611-19.155-.25-28.698-.25l-23.869-67.797c-8.09-22.975-29.915-38.41-54.31-38.41-4.143 0-7.5 3.358-7.5 7.5v98.708h-100.397v-41.298c0-14.16-11.537-25.68-25.717-25.68s-25.717 11.52-25.717 25.68v41.298h-42.484c-30.5 0-55.314 24.814-55.314 55.314 0 25.552-.506 51.154.023 76.699-11.613 3.251-20.158 13.925-20.158 26.581 0 15.209 12.373 27.582 27.582 27.582h40.457c.484 2.091 1.086 4.157 1.821 6.186 3.198 8.824 17.445 4.114 14.103-5.111-1.54-4.247-2.32-8.708-2.32-13.257 0-21.501 17.536-38.995 39.091-38.995s39.091 17.493 39.091 38.995-17.536 38.995-39.091 38.995c-5.746 0-11.291-1.223-16.481-3.635-8.512-3.956-15.22 9.467-6.321 13.603 7.185 3.339 14.857 5.032 22.803 5.032 25.628 0 47.135-17.89 52.685-41.813h152.698c5.549 23.923 27.055 41.813 52.684 41.813s47.135-17.89 52.685-41.813h52.931c15.209 0 27.582-12.373 27.582-27.605 0-10.848-6.297-20.249-15.426-24.751zm-57.636-42.852c-9.12 0-16.54-7.397-16.54-16.49s7.42-16.491 16.54-16.491h22.212c7.31 9.92 12.855 21.152 16.303 32.981zm-154.173-181.511c14.894 2.666 27.525 13.141 32.661 27.727l22.115 62.816h-54.777v-90.543zm-151.832 49.244c0-5.889 4.808-10.68 10.717-10.68 5.91 0 10.717 4.791 10.717 10.68v40.341h-21.434zm-97.798 96.612c0-22.106 17.887-40.106 39.947-40.305v24.81c0 12.841-10.475 23.288-23.351 23.288h-16.596zm31.581 115.863h-39.134c-6.938 0-12.582-5.644-12.582-12.605 0-6.938 5.644-12.582 12.582-12.582h46.92c-4.525 7.417-7.31 16.002-7.786 25.187zm312.086 41.813c-19.977 0-36.492-15.03-38.803-34.348-.002-.49-.052-.968-.144-1.431-.087-1.062-.144-2.133-.144-3.217 0-21.501 17.536-38.995 39.091-38.995s39.091 17.493 39.091 38.995c0 21.503-17.537 38.996-39.091 38.996zm105.616-41.813h-51.599c-.475-9.185-3.261-17.77-7.786-25.187h59.385c6.938 0 12.582 5.644 12.582 12.605 0 6.938-5.645 12.582-12.582 12.582z"/><path d="m120.733 483.295c13.965 0 25.327-11.345 25.327-25.29s-11.361-25.29-25.327-25.29-25.327 11.345-25.327 25.29 11.362 25.29 25.327 25.29zm0-35.58c5.694 0 10.327 4.616 10.327 10.29s-4.632 10.29-10.327 10.29-10.327-4.616-10.327-10.29 4.633-10.29 10.327-10.29z"/><path d="m378.802 432.715c-13.966 0-25.327 11.345-25.327 25.29s11.361 25.29 25.327 25.29 25.327-11.345 25.327-25.29-11.361-25.29-25.327-25.29zm0 35.58c-5.694 0-10.327-4.616-10.327-10.29s4.633-10.29 10.327-10.29 10.327 4.616 10.327 10.29-4.633 10.29-10.327 10.29z"/><path d="m268.412 320.82v113.284c0 4.142 3.357 7.5 7.5 7.5s7.5-3.358 7.5-7.5v-113.284c0-4.142-3.357-7.5-7.5-7.5s-7.5 3.358-7.5 7.5z"/><path d="m227.016 326.236c-4.142 0-7.5 3.358-7.5 7.5s3.358 7.5 7.5 7.5h20.134c4.142 0 7.5-3.358 7.5-7.5s-3.358-7.5-7.5-7.5z"/><path d="m117.933 320.82v64.006c0 4.142 3.358 7.5 7.5 7.5s7.5-3.358 7.5-7.5v-64.006c0-4.142-3.358-7.5-7.5-7.5s-7.5 3.358-7.5 7.5z"/><path d="m136.021 155.737c1.895.737 3.788.729 5.68-.023 2.106-.872 51.585-21.798 52.114-60.798.242-17.894-13.676-35.105-32.293-35.105-8.664 0-16.758 3.738-22.689 10.078-5.931-6.34-14.025-10.078-22.689-10.078-17.807 0-32.294 15.703-32.294 35.004-.001 39.373 50.041 60.061 52.171 60.922zm-19.877-80.927c6.725 0 12.896 4.583 15.721 11.676 2.459 6.174 11.476 6.174 13.936 0 2.825-7.093 8.996-11.676 15.721-11.676 10.34 0 17.425 10.348 17.294 19.902-.334 24.648-30.523 41.228-40.025 45.838-3.976-1.883-11.551-5.82-19.122-11.654-13.815-10.644-20.819-22.111-20.819-34.083-.001-11.029 7.757-20.003 17.294-20.003z"/><path d="m240.655 75.959c1.895.737 3.788.729 5.68-.023 1.636-.677 40.062-16.932 40.477-47.571.197-14.539-11.039-28.365-26.217-28.365-6.427 0-12.463 2.516-17.128 6.851-4.666-4.335-10.703-6.851-17.129-6.851-14.456 0-26.217 12.679-26.217 28.263 0 30.949 38.879 47.027 40.534 47.696zm-14.317-60.959c4.32 0 8.309 3.005 10.161 7.656 2.459 6.175 11.476 6.175 13.936 0 1.853-4.651 5.841-7.656 10.161-7.656 6.838 0 11.303 6.864 11.219 13.162-.23 16.946-20.698 28.747-28.363 32.575-7.678-3.803-28.33-15.605-28.33-32.473-.001-7.314 5.031-13.264 11.216-13.264z"/><path d="m175.89 177.052c0 26.452 32.921 40.069 34.323 40.636 1.895.737 3.788.729 5.68-.023.337-.14 8.363-3.495 16.441-9.772 11.509-8.943 17.673-19.572 17.824-30.738.171-12.685-9.829-24.767-22.974-24.767-5.25 0-10.202 1.907-14.16 5.229-3.958-3.322-8.91-5.229-14.16-5.229-12.668-.002-22.974 11.063-22.974 24.664zm22.974-9.666c3.036 0 5.859 2.163 7.192 5.511 2.459 6.175 11.477 6.175 13.936 0 1.333-3.348 4.156-5.511 7.192-5.511 4.945 0 8.033 5.292 7.975 9.564-.161 11.911-14.102 21.441-22.124 25.511-6.518-3.292-22.146-12.532-22.146-25.41.001-5.329 3.578-9.665 7.975-9.665z"/></g></svg>