<svg id="Layer_1" enable-background="new 0 0 512 512" height="512" viewBox="0 0 512 512" width="512" xmlns="http://www.w3.org/2000/svg"><g><path d="m452.063 321.698h-14.206c-4.143 0-7.5 3.357-7.5 7.5s3.357 7.5 7.5 7.5h5.537c-1.691 4.91-5.351 8.745-11.829 8.745-8.958 0-16.245-7.287-16.245-16.245s7.287-16.245 16.245-16.245c3.256 0 6.396.958 9.078 2.771 3.433 2.318 8.094 1.416 10.413-2.017 2.318-3.432 1.416-8.094-2.017-10.413-5.172-3.494-11.214-5.341-17.475-5.341-17.229 0-31.245 14.017-31.245 31.245s14.017 31.245 31.245 31.245c16.484 0 27.998-12.849 27.998-31.245.001-4.142-3.357-7.5-7.499-7.5zm-444.836-259.62c17.012 5.144 30.238 18.37 35.381 35.381 1.307 4.323 5.22 7.228 9.735 7.228 4.517 0 8.43-2.904 9.735-7.227 5.144-17.012 18.37-30.238 35.381-35.381 4.323-1.307 7.228-5.22 7.228-9.736s-2.904-8.429-7.227-9.734c-17.012-5.144-30.238-18.37-35.381-35.381-1.306-4.324-5.219-7.228-9.736-7.228-4.516 0-8.429 2.904-9.734 7.227-5.144 17.012-18.37 30.238-35.381 35.381-4.324 1.306-7.228 5.219-7.228 9.735s2.904 8.429 7.227 9.735zm45.116-39.065c6.477 12.607 16.724 22.854 29.331 29.33-12.607 6.477-22.854 16.724-29.33 29.331-6.477-12.607-16.724-22.854-29.331-29.33 12.607-6.477 22.854-16.724 29.33-29.331zm362.197 39.065c17.012 5.144 30.238 18.37 35.381 35.381 1.307 4.323 5.22 7.228 9.736 7.228s8.429-2.904 9.734-7.227c5.144-17.012 18.37-30.238 35.381-35.381 4.323-1.307 7.228-5.22 7.228-9.736s-2.904-8.429-7.227-9.734c-17.012-5.144-30.238-18.37-35.381-35.381-1.306-4.324-5.219-7.228-9.735-7.228-4.517 0-8.43 2.904-9.735 7.227-5.144 17.012-18.37 30.238-35.381 35.381-4.323 1.307-7.228 5.22-7.228 9.735.001 4.516 2.905 8.429 7.227 9.735zm45.116-39.065c6.477 12.607 16.724 22.854 29.331 29.33-12.607 6.477-22.854 16.724-29.33 29.331-6.477-12.607-16.724-22.854-29.331-29.33 12.608-6.477 22.855-16.724 29.33-29.331zm24.799 237.537c22.793-20.294 32.988-52.192 24.664-82.931-10.548-38.947-48.831-63-87.157-54.761-2.502.538-5.087-.949-5.873-3.389-12.021-37.311-51.999-58.439-91.001-48.099-19.02 5.043-35.618 16.729-46.737 32.905-11.117 16.172-16.084 35.852-13.987 55.412 3.413 31.871 20.18 71.413 36.557 99.51h-89.858c15.175-26.115 31.187-63.049 35.837-93.812.619-4.096-2.199-7.918-6.295-8.537-4.092-.618-7.918 2.199-8.537 6.295-4.829 31.95-22.919 71.286-38.525 96.054h-141.516c-28.488-14.339-43.047-46.717-34.667-77.657 8.462-31.245 38.999-50.583 69.522-44.018 10.107 2.175 20.132-3.606 23.307-13.453 9.574-29.716 41.586-46.495 72.88-38.2 22.813 6.05 40.469 23.136 47.227 45.706 1.188 3.968 5.365 6.224 9.336 5.033 3.968-1.188 6.222-5.368 5.033-9.336-8.266-27.606-29.855-48.505-57.752-55.902-39.005-10.338-78.979 10.789-91.001 48.099-.786 2.44-3.36 3.929-5.875 3.39-38.325-8.246-76.608 15.813-87.155 54.761-8.324 30.738 1.871 62.636 24.664 82.931-15.861 4.372-27.546 18.916-27.546 36.147v65c0 20.678 16.822 37.5 37.5 37.5h75.442l-21.677 37.552c-3.35 5.802-3.126 12.87.585 18.446 3.712 5.576 10.149 8.513 16.798 7.662l46.011-5.921c1.094-.147 2.179.483 2.611 1.512l17.869 42.79c2.583 6.186 8.343 10.295 15.031 10.725 6.617.425 12.925-2.898 16.275-8.714l49.555-85.829 49.554 85.83c3.159 5.47 8.88 8.75 15.126 8.749 7.077-.001 13.459-4.208 16.181-10.761l17.864-42.779c.437-1.041 1.521-1.665 2.627-1.521l46.006 5.921c6.651.85 13.081-2.086 16.792-7.663 3.711-5.576 3.935-12.645.585-18.446l-21.677-37.552h75.442c20.678 0 37.5-16.822 37.5-37.5v-65c0-17.232-11.685-31.776-27.545-36.149zm-205.178-102.46c-3.566-33.272 17.316-63.646 49.654-72.22 31.296-8.299 63.306 8.484 72.88 38.2 3.174 9.844 13.19 15.629 23.305 13.452 30.523-6.561 61.063 12.771 69.524 44.018 8.379 30.94-6.18 63.318-34.668 77.658h-141.515c-17.316-27.468-35.831-69.843-39.18-101.108zm-85.822 337.659c-1.212 1.931-3.518 1.78-4.475-.29l-17.874-42.8c-3.04-7.251-10.598-11.608-18.373-10.598l-45.994 5.919c-2.266.2-3.553-1.707-2.484-3.73l26.006-45.052h118.94zm303.545-134.051c0 12.406-10.094 22.5-22.5 22.5h-137.922c-4.143 0-7.5 3.357-7.5 7.5s3.357 7.5 7.5 7.5h45.161l26.006 45.052c1.061 2.008-.21 3.945-2.479 3.731l-45.989-5.919c-7.779-1.007-15.342 3.345-18.389 10.606l-17.868 42.792c-.955 2.061-3.255 2.226-4.475.29l-53.884-93.329 1.861-3.223h35.057c4.143 0 7.5-3.357 7.5-7.5s-3.357-7.5-7.5-7.5h-264.079c-12.406 0-22.5-10.094-22.5-22.5v-65c0-12.406 10.094-22.5 22.5-22.5h437c12.406 0 22.5 10.094 22.5 22.5zm-231.069-62.341h-13.053c-1.991 0-3.901.792-5.309 2.201-1.406 1.41-2.195 3.321-2.191 5.313v.033 45.291c.013 2.244.695 4.47 2.31 6.072 1.405 1.395 3.305 2.177 5.284 2.177h.028c.395-.002 9.714-.037 13.443-.103 14.832-.259 25.598-13.062 25.598-30.44 0-18.269-10.493-30.544-26.11-30.544zm.25 45.986c-1.355.024-3.533.044-5.734.06-.017-5.276-.035-12.001-.035-15.553 0-2.984-.011-9.99-.02-15.492h5.539c10.31 0 11.11 11.896 11.11 15.543 0 7.591-3.357 15.311-10.86 15.442zm-61.913-45.986h-13.053c-1.991 0-3.901.792-5.309 2.202-1.407 1.409-2.195 3.32-2.191 5.313v.032 45.291c.013 2.244.696 4.469 2.31 6.071 1.405 1.396 3.305 2.178 5.284 2.178h.028c.395-.002 9.714-.037 13.443-.103 14.832-.259 25.598-13.062 25.598-30.44 0-18.269-10.493-30.544-26.11-30.544zm.25 45.986c-1.355.024-3.533.044-5.733.06-.017-5.276-.035-12.001-.035-15.553 0-2.984-.011-9.99-.021-15.492h5.539c10.31 0 11.11 11.896 11.11 15.543 0 7.591-3.357 15.311-10.86 15.442zm110.023-47.39c-4.143 0-7.5 3.357-7.5 7.5v47.49c0 4.143 3.357 7.5 7.5 7.5s7.5-3.357 7.5-7.5v-47.49c0-4.142-3.357-7.5-7.5-7.5zm62.837 0h-.074c-4.143.04-7.468 3.431-7.428 7.572l.23 23.839-19.394-28.084c-1.864-2.701-5.267-3.873-8.404-2.898-3.133.977-5.268 3.878-5.268 7.16v47.401c0 4.143 3.357 7.5 7.5 7.5s7.5-3.357 7.5-7.5v-23.343l18.383 26.62c2.144 3.093 5.74 4.402 9.165 3.33 3.481-1.089 5.73-4.311 5.73-8.28l-.443-45.89c-.039-4.116-3.389-7.427-7.497-7.427zm-264.526.232c-4.064-.812-8.012 1.829-8.819 5.892l-4.297 21.586-6.905-22.417c-1.22-3.959-5.418-6.177-9.376-4.96-2.641.814-4.501 2.956-5.089 5.465l-6.784 21.917-4.286-21.669c-.804-4.063-4.746-6.708-8.813-5.902-4.063.804-6.706 4.749-5.902 8.813l9.253 46.777c.77 3.912 4.404 6.768 8.367 6.758h.058c3.723-.022 7.009-2.46 8.122-6.009l7.279-23.517 7.246 23.521c1.1 3.565 4.458 6.007 8.178 6.005h.058c3.959-.017 7.532-2.853 8.313-6.763l9.29-46.677c.807-4.064-1.831-8.012-5.893-8.82zm48.363 15.202c4.143 0 7.5-3.357 7.5-7.5s-3.357-7.5-7.5-7.5h-19.827c-4.143 0-7.5 3.357-7.5 7.5v47.057c0 4.143 3.357 7.5 7.5 7.5h19.827c4.143 0 7.5-3.357 7.5-7.5s-3.357-7.5-7.5-7.5h-12.327v-8.528h10.865c4.143 0 7.5-3.357 7.5-7.5s-3.357-7.5-7.5-7.5h-10.865v-8.528h12.327z"/></g></svg>