<?xml version="1.0"?>
<svg xmlns="http://www.w3.org/2000/svg" xmlns:xlink="http://www.w3.org/1999/xlink" viewBox="0 0 512 512" width="512" height="512"><defs><linearGradient id="linear-gradient" x1="75.266" y1="482.583" x2="436.804" y2="121.045" gradientUnits="userSpaceOnUse"><stop offset="0" stop-color="#41dfd0"/><stop offset="1" stop-color="#ee83ef"/></linearGradient></defs><g id="gradient"><path d="M256,121.6a8,8,0,0,0,5.657-2.343L310.7,70.216A31.759,31.759,0,1,0,265.785,25.3L256,35.086,246.216,25.3A31.759,31.759,0,1,0,201.3,70.215l49.041,49.042A8,8,0,0,0,256,121.6ZM208,47.759a15.759,15.759,0,0,1,26.9-11.143l15.441,15.441a8,8,0,0,0,11.314,0L277.1,36.616A15.758,15.758,0,1,1,299.384,58.9h0L256,102.286,212.616,58.9A15.651,15.651,0,0,1,208,47.759ZM87.59,426.648a36.742,36.742,0,0,0-28.731,26.143l-1.683,5.875a8,8,0,0,0,5.487,9.894l94.717,27.131a7.992,7.992,0,0,0,9.893-5.488l1.519-5.3a37.062,37.062,0,0,0-11.351-38.118l-.816-.707a21.009,21.009,0,0,1-6.436-21.61l31.447-109.783,30.874-17.125a98.238,98.238,0,0,0,43.923-50.621,98.238,98.238,0,0,0,43.923,50.621l30.874,17.125,31.448,109.783h0a21.014,21.014,0,0,1-6.436,21.612l-.815.7a37.061,37.061,0,0,0-11.352,38.12l1.518,5.3a7.992,7.992,0,0,0,9.893,5.488L450.2,468.56a8,8,0,0,0,5.487-9.894l-1.682-5.875a36.743,36.743,0,0,0-28.732-26.143,20.83,20.83,0,0,1-16.289-14.821L377.375,301.468,394.5,270.593a98.288,98.288,0,0,0-1.623-97.885l-37.148-62.031a8,8,0,0,0-9.066-3.581l-90.23,25.846L166.2,107.1a8,8,0,0,0-9.067,3.581l-37.148,62.031a98.288,98.288,0,0,0-1.623,97.885l17.125,30.875L103.879,411.827A20.83,20.83,0,0,1,87.59,426.648Zm306.015-10.415a36.743,36.743,0,0,0,28.732,26.142A20.817,20.817,0,0,1,438.026,455.4l-79.111,22.661a21.023,21.023,0,0,1,6.977-19.178l.815-.7a37.066,37.066,0,0,0,11.353-38.119h0L347.9,314.785l15.382-4.406Zm-13.1-153.4-17.125,30.875-24.392,6.987-30.874-17.126a82.24,82.24,0,0,1-42.213-70.2l-.1-5.367h19.6a319.178,319.178,0,0,0,99.336-15.834A82.278,82.278,0,0,1,380.508,262.832ZM345.16,124.17l32.1,53.6A303.189,303.189,0,0,1,285.4,192H265.512l-.823-44.779Zm-177.454,0,80.471,23.051L247.354,192H226.6a303.2,303.2,0,0,1-91.127-14ZM132.358,262.832a82.28,82.28,0,0,1-4.333-70.419A319.179,319.179,0,0,0,226.6,208h20.465l-.1,5.367a82.241,82.241,0,0,1-42.212,70.2l-30.875,17.126-24.392-6.987Zm-13.1,153.4,30.321-105.854,15.382,4.406L134.807,420.062a37.063,37.063,0,0,0,11.351,38.119l.817.707a21.025,21.025,0,0,1,6.977,19.177L74.84,455.4a20.817,20.817,0,0,1,15.689-13.029A36.742,36.742,0,0,0,119.261,416.233ZM163.015,84.822l5.466-15.037a8,8,0,0,1,15.038,5.466l-5.467,15.038a8,8,0,1,1-15.037-5.467Zm-23.578,7.554-12.3-12.985a8,8,0,0,1,11.615-11.005l12.3,12.986a8,8,0,1,1-11.614,11Zm-21.081,11.159,17.77-2.053a8,8,0,1,1,1.836,15.895l-17.77,2.052a8.1,8.1,0,0,1-.928.054,8,8,0,0,1-.908-15.948ZM333.222,90.289l-5.467-15.038a8,8,0,0,1,15.037-5.466l5.467,15.037a8,8,0,1,1-15.037,5.467Zm50.614-22.207a8,8,0,0,1,.305,11.309l-12.3,12.985a8,8,0,1,1-11.614-11l12.3-12.986A8,8,0,0,1,383.836,68.082Zm-8.689,33.4,17.771,2.053a8,8,0,0,1-.908,15.948,8.1,8.1,0,0,1-.928-.054l-17.77-2.052a8,8,0,0,1,1.835-15.895ZM169.14,276.116a8,8,0,0,1,2.744-10.976l8-4.8a8,8,0,0,1,8.232,13.72l-8,4.8a8,8,0,0,1-10.976-2.744Zm26.28-15.768a8,8,0,0,1,2.745-10.976A20.363,20.363,0,0,0,208,232a8,8,0,0,1,16,0,36.443,36.443,0,0,1-17.6,31.092,8,8,0,0,1-10.976-2.744Zm145.938,6.887L346,259.142a8,8,0,0,1,13.879,7.961l-4.642,8.093a8,8,0,1,1-13.879-7.961Zm15.249-26.585a20.362,20.362,0,0,0,.112-19.962,8,8,0,1,1,13.967-7.806,36.442,36.442,0,0,1-.2,35.729,8,8,0,1,1-13.879-7.961Z" style="fill:url(#linear-gradient)"/></g></svg>
